<?xml version="1.0" encoding="utf-8"?>
<svg version="1.1" id="Layer_1" xmlns="http://www.w3.org/2000/svg" xmlns:xlink="http://www.w3.org/1999/xlink" x="0px" y="0px"
	 viewBox="0 0 50 50" style="enable-background:new 0 0 50 50;" xml:space="preserve">
<style type="text/css">
	.st0{opacity:0.05;}
	.st1{fill:#269346;}
	.st2{opacity:0.05;fill:#269346;}
	.st3{opacity:0.05;fill:#2E3086;}
</style>
<g id="XMLID_1_" class="st0">
	<rect id="XMLID_21_" x="-4.3" class="st1" width="12.3" height="8.4"/>
</g>
<rect id="XMLID_2_" x="47.2" class="st2" width="7.1" height="8.4"/>
<rect id="XMLID_3_" x="9" y="-2" class="st3" width="7" height="21.3"/>
<rect id="XMLID_4_" x="9" y="45.4" class="st3" width="7" height="5"/>
<rect id="XMLID_5_" x="17.2" class="st2" width="9.8" height="13"/>
<rect id="XMLID_6_" x="28" class="st3" width="7.1" height="35"/>
<rect id="XMLID_7_" x="36.4" class="st3" width="9.6" height="23.6"/>
<rect id="XMLID_8_" x="36.4" y="25" class="st3" width="9.6" height="16.8"/>
<rect id="XMLID_9_" x="47.2" y="10.3" class="st2" width="3.6" height="21.9"/>
<rect id="XMLID_10_" x="47.2" y="33.4" class="st3" width="5.8" height="20.8"/>
<rect id="XMLID_11_" x="36.4" y="43" class="st2" width="9.6" height="5.8"/>
<rect id="XMLID_12_" x="28" y="36.5" class="st2" width="7.1" height="8.9"/>
<rect id="XMLID_13_" x="17.3" y="14.8" class="st3" width="9.7" height="12.3"/>
<rect id="XMLID_15_" x="17.2" y="30.9" class="st3" width="9.8" height="19.6"/>
<rect id="XMLID_16_" x="9" y="21.2" class="st2" width="7" height="12.2"/>
<rect id="XMLID_17_" x="9" y="35" class="st2" width="7" height="8.8"/>
<rect id="XMLID_18_" y="10.3" class="st2" width="8.1" height="21.9"/>
<rect id="XMLID_19_" x="-1" y="33.4" class="st3" width="8.3" height="19.6"/>
</svg>